<?xml version="1.0" encoding="UTF-8"?>
<svg width="607px" height="528px" viewBox="0 0 607 528" version="1.1" xmlns="http://www.w3.org/2000/svg" xmlns:xlink="http://www.w3.org/1999/xlink">
    <!-- Generator: sketchtool 51.2 (57519) - http://www.bohemiancoding.com/sketch -->
    <title>37994EC7-4643-464F-9E9F-9320331B5E13</title>
    <desc>Created with sketchtool.</desc>
    <defs></defs>
    <g id="Website" stroke="none" stroke-width="1" fill="none" fill-rule="evenodd">
        <g id="Desktop-HD" transform="translate(-30.000000, -704.000000)">
            <g id="Illustration" transform="translate(30.000000, 704.000000)">
                <g id="Group-4">
                    <g id="Group-3" transform="translate(0.000000, 176.920133)">
                        <polygon id="Triangle" fill="#777FBE" opacity="0.50999999" points="81.6194008 143.472546 163.238802 306.374036 0 306.374036"></polygon>
                        <polygon id="Triangle" fill="#C0C3E0" points="518.254603 0 606.330945 175.788688 430.178261 175.788688"></polygon>
                        <polygon id="Triangle" fill="#E4E6F1" points="185.755699 351.11951 81.8130435 143.472546 289.698355 143.472546"></polygon>
                        <polygon id="Triangle" fill="#E1E2F0" points="313.862879 94.1813644 395.48228 257.082854 232.243478 257.082854"></polygon>
                        <polygon id="Triangle" fill="#777FBE" opacity="0.800000012" points="437.022299 338.941424 355.402899 176.039933 518.6417 176.039933"></polygon>
                    </g>
                    <g id="Group-2" transform="translate(332.530435, 10.562396)">
                        <ellipse id="Oval" fill="#F6F6FA" transform="translate(81.373188, 81.418469) rotate(-360.000000) translate(-81.373188, -81.418469) " cx="81.3731884" cy="81.4184692" rx="81.3731884" ry="81.4184692"></ellipse>
                        <ellipse id="Oval" fill="#EFEFF6" transform="translate(81.373188, 81.418469) rotate(-360.000000) translate(-81.373188, -81.418469) " cx="81.3731884" cy="81.4184692" rx="58.8944071" ry="58.8022278"></ellipse>
                        <ellipse id="Oval" fill="#E8E8F2" cx="81.822764" cy="81.4184692" rx="35.9660501" ry="36.1859863"></ellipse>
                        <ellipse id="Oval" fill="#CDCFE6" cx="81.3731884" cy="81.870794" rx="15.7351469" ry="15.831369"></ellipse>
                    </g>
                    <path d="M299.981159,72.1719328 L299.981159,72.1763727 L168.024638,72.1763727 C162.626299,72.1763727 158.250081,67.7487592 158.250081,62.2870212 C158.250081,56.8252832 162.626299,52.3976697 168.024638,52.3976697 C169.527408,52.3976697 170.950971,52.7407809 172.222971,53.3537977 C172.216828,53.1535663 172.213734,52.9525726 172.213734,52.7508608 C172.213734,42.0224468 180.96617,33.3253489 191.762848,33.3253489 C194.234732,33.3253489 196.599462,33.7812286 198.776533,34.6129925 C199.572822,15.4300157 215.195858,0.12538316 234.35199,0.12538316 C251.099574,0.12538316 265.146659,11.8233834 268.946364,27.5838702 C270.615522,27.1811364 272.357349,26.9679087 274.148401,26.9679087 C284.976966,26.9679087 294.006239,34.7620685 296.054617,45.1079312 C297.194603,44.7946531 298.394038,44.6274649 299.632068,44.6274649 C307.151183,44.6274649 313.24663,50.794498 313.24663,58.4019188 C313.24663,65.8912563 307.338943,71.9845748 299.981159,72.1719328 Z" id="Combined-Shape" fill="#9097CA"></path>
                    <path d="M224.737494,99.4434363 L224.737494,99.4625624 L104.991874,99.4625624 C99.9641673,99.4625624 95.8884058,95.3861772 95.8884058,90.3577013 C95.8884058,85.3292254 99.9641673,81.2528402 104.991874,81.2528402 C106.50863,81.2528402 107.938749,81.6238342 109.196463,82.2800414 C109.194474,82.1713381 109.193475,82.0623928 109.193475,81.9532142 C109.193475,72.2830682 117.031478,64.443866 126.700144,64.443866 C128.672358,64.443866 130.568402,64.770038 132.337291,65.3713889 C133.133003,48.0923553 147.391646,34.327787 164.864684,34.327787 C180.02606,34.327787 192.767301,44.6912049 196.39307,58.7216798 C197.959381,58.3418143 199.595463,58.1405006 201.278556,58.1405006 C211.215146,58.1405006 219.513154,65.1571763 221.489513,74.5067432 C222.312349,74.3378236 223.164428,74.249101 224.037227,74.249101 C230.998667,74.249101 236.642029,79.8933266 236.642029,86.8558317 C236.642029,93.5833214 231.373214,99.0800251 224.737494,99.4434363 Z" id="Combined-Shape" fill="#BDC1DF"></path>
                    <path d="M245.214088,163.69218 L245.214088,163.717138 L219.436535,163.717138 C218.250156,163.717138 217.288406,162.771349 217.288406,161.604659 C217.288406,160.437969 218.250156,159.49218 219.436535,159.49218 C219.690148,159.49218 219.933496,159.5354 220.159378,159.61476 C220.280137,157.582661 221.994133,155.971381 224.090816,155.971381 C224.471064,155.971381 224.838725,156.024377 225.186579,156.123267 C225.473016,152.492434 228.559712,149.633943 232.325312,149.633943 C235.578408,149.633943 238.324825,151.767295 239.196827,154.688963 C239.519207,154.606653 239.855718,154.563062 240.201786,154.563062 C242.538679,154.563062 244.439794,156.55079 244.496732,159.025806 C244.822599,158.873344 245.187222,158.78802 245.57211,158.78802 C246.956219,158.78802 248.078261,159.891441 248.078261,161.252579 C248.078261,162.613717 246.956219,163.717138 245.57211,163.717138 C245.450554,163.717138 245.331019,163.708628 245.214088,163.69218 Z" id="Combined-Shape" fill="#E4E6F1" opacity="0.5"></path>
                    <path d="M297.839256,144.352745 L242.647007,144.352745 C240.30225,144.352745 238.401449,142.648125 238.401449,140.54537 C238.401449,138.442615 240.30225,136.737995 242.647007,136.737995 C243.421467,136.737995 244.147493,136.923959 244.772592,137.248811 C244.770725,137.184503 244.769786,137.119988 244.769786,137.055276 C244.769786,133.024995 248.412987,129.757807 252.907105,129.757807 C253.776041,129.757807 254.613167,129.879948 255.398298,130.10613 C255.750443,122.851295 262.420389,117.066556 270.596928,117.066556 C277.454646,117.066556 283.252582,121.135708 285.152267,126.728501 C285.709992,126.634229 286.284597,126.584994 286.871566,126.584994 C291.749643,126.584994 295.773718,129.985481 296.352591,134.376626 C296.826345,134.261293 297.324786,134.199745 297.839256,134.199745 C300.965599,134.199745 303.5,136.472571 303.5,139.276245 C303.5,142.079919 300.965599,144.352745 297.839256,144.352745 Z" id="Combined-Shape" fill="#BDC0DF"></path>
                    <path d="M356.106667,193.620157 L356.106667,193.643927 L329.363478,193.643927 C328.197437,193.643927 327.252174,192.743175 327.252174,191.632042 C327.252174,190.520908 328.197437,189.620157 329.363478,189.620157 C329.610877,189.620157 329.848337,189.660705 330.068939,189.735208 C330.067813,189.696989 330.067246,189.658636 330.067246,189.620157 C330.067246,187.39789 331.957773,185.596387 334.289855,185.596387 C334.799421,185.596387 335.287905,185.682397 335.740192,185.840012 C336.13902,182.309589 339.27611,179.560732 343.086957,179.560732 C346.328953,179.560732 349.083325,181.550187 350.078945,184.317826 C350.322804,184.276583 350.573164,184.25513 350.828406,184.25513 C353.354828,184.25513 355.402899,186.356884 355.402899,188.949529 C355.402899,189.026067 355.401114,189.102178 355.397584,189.17782 C355.718886,189.031471 356.078676,188.949529 356.458551,188.949529 C357.818932,188.949529 358.921739,190.000405 358.921739,191.296728 C358.921739,192.59305 357.818932,193.643927 356.458551,193.643927 C356.339079,193.643927 356.221593,193.635822 356.106667,193.620157 Z" id="Combined-Shape" fill="#E4E6F1" opacity="0.200000003" transform="translate(343.086957, 186.602329) scale(-1, 1) translate(-343.086957, -186.602329) "></path>
                    <g id="Group-5" transform="translate(88.850725, 264.059900)">
                        <rect id="Rectangle-5" fill="#E4E6F1" x="33.9955785" y="34.4767439" width="5.36772292" height="24.4966338"></rect>
                        <polygon id="Triangle-2" fill="#DDDEEE" points="35.7848195 0 52.7826087 34.4767439 18.7870302 34.4767439"></polygon>
                        <rect id="Rectangle-5" fill="#E4E6F1" x="11.6300663" y="39.9204403" width="5.36772292" height="18.1456547"></rect>
                        <polygon id="Triangle-2" fill="#BDC0DF" points="14.3139278 13.609241 28.6278556 41.7350058 0 41.7350058"></polygon>
                    </g>
                    <g id="Group-6" transform="translate(145.152174, 247.336106)">
                        <rect id="Rectangle-5" fill="#E4E6F1" x="21.496917" y="55.5651627" width="7.165639" height="22.7726077"></rect>
                        <path d="M7.97934272,46.7901179 L4.16313533,46.7901179 L12.1424781,30.7278386 L9.02012656,30.7278386 L24.2849561,0 L39.5497857,30.7278386 L36.4274342,30.7278386 L44.4067769,46.7901179 L41.2844254,46.7901179 L49.2637681,62.8523972 L0,62.8523972 L7.97934272,46.7901179 Z" id="Combined-Shape" fill="#9097CA"></path>
                    </g>
                </g>
            </g>
        </g>
    </g>
</svg>