<?xml version="1.0" encoding="UTF-8"?>
<svg width="1436px" height="310px" viewBox="0 0 1436 310" version="1.1" xmlns="http://www.w3.org/2000/svg" xmlns:xlink="http://www.w3.org/1999/xlink">
    <!-- Generator: Sketch 51.2 (57519) - http://www.bohemiancoding.com/sketch -->
    <title>Logo color@1x</title>
    <desc>Created with Sketch.</desc>
    <defs></defs>
    <g id="Logo-color" stroke="none" stroke-width="1" fill="none" fill-rule="evenodd">
        <g id="Group" transform="translate(0.000000, 86.000000)" fill="#7172BF">
            <path d="M169.918646,109.218232 C175.877593,109.218232 181.329313,108.265203 186.273971,106.359116 C191.218628,104.453029 195.434203,101.721012 198.92082,98.1629834 C202.407438,94.6049546 205.133298,90.4116264 207.098483,85.5828729 C209.063667,80.7541195 210.046245,75.353621 210.046245,69.3812155 L210.046245,69 C210.046245,63.1546669 209.063667,57.7541684 207.098483,52.7983425 C205.133298,47.8425167 202.407438,43.5856531 198.92082,40.0276243 C195.434203,36.4695955 191.218628,33.705811 186.273971,31.7361878 C181.329313,29.7665647 175.877593,28.781768 169.918646,28.781768 L147.287441,28.781768 L147.287441,109.218232 L169.918646,109.218232 Z M118,2.28729282 L169.918646,2.28729282 C180.315106,2.28729282 189.855616,3.97097764 198.540464,7.33839779 C207.225311,10.7058179 214.705579,15.3756607 220.981491,21.3480663 C227.257402,27.3204719 232.106898,34.3411199 235.530122,42.410221 C238.953347,50.4793221 240.664933,59.2154226 240.664933,68.6187845 L240.664933,69 C240.664933,78.4033619 238.953347,87.1712301 235.530122,95.3038674 C232.106898,103.436505 227.257402,110.48892 220.981491,116.461326 C214.705579,122.433732 207.225311,127.135342 198.540464,130.566298 C189.855616,133.997255 180.315106,135.712707 169.918646,135.712707 L118,135.712707 L118,2.28729282 Z M264.890709,2.28729282 L365.304793,2.28729282 L365.304793,28.4005525 L293.987972,28.4005525 L293.987972,55.4668508 L356.746775,55.4668508 L356.746775,81.5801105 L293.987972,81.5801105 L293.987972,109.599448 L366.255684,109.599448 L366.255684,135.712707 L264.890709,135.712707 L264.890709,2.28729282 Z M437.835829,137.618785 C427.692942,137.618785 417.740382,135.871564 407.977853,132.377072 C398.215324,128.882579 389.34043,123.513848 381.352906,116.270718 L398.659122,95.4944751 C404.744854,100.450301 410.988976,104.389488 417.391674,107.312155 C423.794371,110.234821 430.799198,111.696133 438.406364,111.696133 C444.492096,111.696133 449.214808,110.584265 452.574639,108.360497 C455.934471,106.136729 457.614361,103.055268 457.614361,99.1160221 L457.614361,98.7348066 C457.614361,96.8287198 457.265705,95.1450349 456.568381,93.6837017 C455.871058,92.2223684 454.539823,90.8563599 452.574639,89.5856354 C450.609455,88.3149108 447.883594,87.0442052 444.396977,85.7734807 C440.910359,84.5027561 436.377824,83.1685153 430.799236,81.7707182 C424.079573,80.1187763 417.993932,78.2762533 412.54213,76.2430939 C407.090328,74.2099346 402.462705,71.7002912 398.659122,68.7140884 C394.855539,65.7278856 391.907806,62.011072 389.815836,57.5635359 C387.723865,53.1159999 386.677896,47.5884308 386.677896,40.980663 L386.677896,40.5994475 C386.677896,34.4999695 387.818954,29.0041681 390.101103,24.1118785 C392.383253,19.2195888 395.584554,14.9944929 399.705102,11.4364641 C403.82565,7.87843525 408.738537,5.14641837 414.443912,3.24033149 C420.149286,1.33424461 426.425103,0.38121547 433.271553,0.38121547 C443.034082,0.38121547 452.004064,1.84252682 460.181767,4.76519337 C468.35947,7.68785992 475.871433,11.8811881 482.717882,17.3453039 L467.503627,39.4558011 C461.544681,35.3894824 455.712608,32.180951 450.007233,29.8301105 C444.301859,27.47927 438.59657,26.3038674 432.891196,26.3038674 C427.185822,26.3038674 422.906855,27.4157347 420.054168,29.6395028 C417.201481,31.8632708 415.775159,34.6270553 415.775159,37.9309392 L415.775159,38.3121547 C415.775159,40.4723865 416.187208,42.3466771 417.011317,43.9350829 C417.835427,45.5234886 419.325141,46.9530323 421.480505,48.2237569 C423.635868,49.4944815 426.583601,50.7016517 430.323791,51.8453039 C434.06398,52.988956 438.786692,54.3231968 444.492066,55.8480663 C451.211729,57.6270807 457.202282,59.6284419 462.463905,61.8522099 C467.725528,64.075978 472.162975,66.7444596 475.776378,69.8577348 C479.389782,72.97101 482.115642,76.6242884 483.954041,80.8176796 C485.792439,85.0110707 486.711624,90.0303575 486.711624,95.8756906 L486.711624,96.2569061 C486.711624,102.864674 485.507174,108.741687 483.098239,113.888122 C480.689303,119.034556 477.329522,123.354955 473.018795,126.849448 C468.708067,130.34394 463.573308,133.012422 457.614361,134.854972 C451.655415,136.697523 445.062637,137.618785 437.835829,137.618785 Z M511.698112,2.28729282 L540.985554,2.28729282 L540.985554,135.712707 L511.698112,135.712707 L511.698112,2.28729282 Z M636.528151,138 C626.131691,138 616.654572,136.284548 608.096511,132.853591 C599.53845,129.422635 592.184966,124.657489 586.035841,118.558011 C579.886715,112.458533 575.100612,105.215512 571.677387,96.8287293 C568.254163,88.441947 566.542576,79.2928672 566.542576,69.3812155 L566.542576,69 C566.542576,59.4695656 568.285859,50.5428593 571.772477,42.2196133 C575.259094,33.8963672 580.10859,26.5898105 586.321108,20.2997238 C592.533627,14.0096371 599.88711,9.05388551 608.381778,5.43232044 C616.876447,1.81075537 626.195085,0 636.337972,0 C642.296919,0 647.716943,0.412979296 652.598208,1.23895028 C657.479472,2.06492126 662.012007,3.24032387 666.195948,4.76519337 C670.37989,6.29006287 674.3102,8.19612116 677.986996,10.4834254 C681.663793,12.7707297 685.21375,15.375676 688.636975,18.2983425 L670.18969,40.5994475 C667.653969,38.4392157 665.118285,36.5331574 662.582563,34.8812155 C660.046841,33.2292735 657.416069,31.8314974 654.690168,30.6878453 C651.964267,29.5441932 649.016534,28.6546993 645.846882,28.019337 C642.67723,27.3839747 639.190664,27.0662983 635.387081,27.0662983 C630.062066,27.0662983 625.085786,28.1781657 620.458093,30.4019337 C615.830401,32.6257017 611.773307,35.6118597 608.286689,39.3604972 C604.800072,43.1091348 602.074211,47.4930688 600.109027,52.5124309 C598.143843,57.5317931 597.161265,62.9005239 597.161265,68.6187845 L597.161265,69 C597.161265,75.099478 598.143843,80.72235 600.109027,85.8687845 C602.074211,91.0152191 604.863464,95.4944561 608.476867,99.3066298 C612.090271,103.118804 616.337542,106.073194 621.218806,108.16989 C626.100071,110.266585 631.520095,111.314917 637.479042,111.314917 C648.382646,111.314917 657.5745,108.646436 665.054879,103.309392 L665.054879,84.2486188 L635.57726,84.2486188 L635.57726,58.8977901 L693.39143,58.8977901 L693.39143,116.842541 C686.544981,122.687875 678.399096,127.675394 668.953532,131.805249 C659.507968,135.935104 648.699616,138 636.528151,138 Z M719.709165,2.28729282 L746.714468,2.28729282 L809.092915,84.4392265 L809.092915,2.28729282 L838,2.28729282 L838,135.712707 L813.086657,135.712707 L748.61625,50.8922652 L748.61625,135.712707 L719.709165,135.712707 L719.709165,2.28729282 Z" id="DESIGN"></path>
            <path d="M870,135.895921 L870,2 L884.998286,2 L884.998286,61.488045 L961.698383,61.488045 L961.698383,2 L976.696669,2 L976.696669,135.895921 L961.698383,135.895921 L961.698383,75.6427567 L884.998286,75.6427567 L884.998286,135.895921 L870,135.895921 Z M1065.6203,138 C1032.77595,138 1010.37344,117.724332 1010.37344,79.8509142 L1010.37344,2 L1025.37173,2 L1025.37173,78.8945148 C1025.37173,107.777778 1040.74972,124.036568 1066,124.036568 C1090.49087,124.036568 1106.05871,109.116737 1106.05871,79.8509142 L1106.05871,2 L1121.057,2 L1121.057,78.7032349 C1121.057,117.724332 1098.84435,138 1065.6203,138 Z M1154.73378,135.895921 L1154.73378,2 L1211.30959,2 C1226.49773,2 1238.45839,6.39943741 1246.05246,13.859353 C1251.55816,19.5977496 1254.59578,26.6751055 1254.59578,35.2827004 L1254.59578,35.6652602 C1254.59578,53.07173 1243.96409,62.0618847 1233.52224,66.652602 C1249.27993,71.4345992 1262,80.6160338 1262,98.978903 L1262,99.3614627 C1262,122.315049 1242.82498,135.895921 1213.77766,135.895921 L1154.73378,135.895921 Z M1239.40764,37.769339 L1239.40764,37.3867792 C1239.40764,24.1884669 1228.9658,15.580872 1209.98063,15.580872 L1169.54221,15.580872 L1169.54221,61.6793249 L1208.84152,61.6793249 C1226.87743,61.6793249 1239.40764,53.4542897 1239.40764,37.769339 Z M1246.81186,98.0225035 C1246.81186,83.4852321 1234.66135,75.068917 1211.49944,75.068917 L1169.54221,75.068917 L1169.54221,122.315049 L1214.15737,122.315049 C1234.28165,122.315049 1246.81186,113.324895 1246.81186,98.4050633 L1246.81186,98.0225035 Z" id="HUB" opacity="0.5"></path>
            <rect id="Rectangle-2" opacity="0.5" x="0" y="2" width="28" height="136"></rect>
        </g>
    </g>
</svg>