<?xml version="1.0" encoding="UTF-8"?>
<svg width="576px" height="575px" viewBox="0 0 576 575" version="1.1" xmlns="http://www.w3.org/2000/svg" xmlns:xlink="http://www.w3.org/1999/xlink">
    <!-- Generator: sketchtool 51.2 (57519) - http://www.bohemiancoding.com/sketch -->
    <title>7A44469A-D919-4986-A550-B86F2555E1B2</title>
    <desc>Created with sketchtool.</desc>
    <defs></defs>
    <g id="Website" stroke="none" stroke-width="1" fill="none" fill-rule="evenodd">
        <g id="Thank-you-for-subscription" transform="translate(-683.000000, -115.000000)">
            <g id="Illustration" transform="translate(640.000000, 115.000000)">
                <g id="Group-2" transform="translate(43.492586, 0.000000)">
                    <ellipse id="Oval" fill="#EFEFF6" opacity="0.400000006" transform="translate(288.834366, 288.739229) rotate(-360.000000) translate(-288.834366, -288.739229) " cx="288.834366" cy="288.739229" rx="123.544801" ry="123.504108"></ellipse>
                    <path d="M288.214556,62.5808193 L288.214556,513.65841" id="Line-2" stroke="#777FBE" stroke-width="1.14008621" stroke-linecap="square" stroke-dasharray="2.280172357311497,5.700431244271584" fill-rule="nonzero"></path>
                    <path d="M62.6014374,288.119606 L513.827665,288.119606" id="Line-2" stroke="#777FBE" stroke-width="1.14008621" stroke-linecap="square" stroke-dasharray="2.280172357311497,5.700431244271584" fill-rule="nonzero"></path>
                    <path d="M128.681988,447.59961 L447.747089,128.639603" id="Line-2" stroke="#777FBE" stroke-width="1.14008621" stroke-linecap="square" stroke-dasharray="2.280172357311497,5.700431244271584" fill-rule="nonzero"></path>
                    <path d="M128.681988,128.639603 L447.747089,447.59961" id="Line-2" stroke="#777FBE" stroke-width="1.14008621" stroke-linecap="square" stroke-dasharray="2.280172357311497,5.700431244271584" fill-rule="nonzero"></path>
                    <ellipse id="Oval" fill="#F1F1F7" transform="translate(288.834357, 288.739221) rotate(-360.000000) translate(-288.834357, -288.739221) " cx="288.834357" cy="288.739221" rx="102.455358" ry="102.421611"></ellipse>
                    <g id="Group" transform="translate(233.699486, 238.830384)" fill-rule="nonzero">
                        <rect id="Rectangle" fill="#CDCFE6" x="0" y="32.9832305" width="111.138014" height="65.966461"></rect>
                        <polygon id="Rectangle" fill="#E8E8F2" points="55.5690072 0 111.138014 32.9832305 0 32.9832305"></polygon>
                        <rect id="Rectangle-2" fill="#777FBE" x="9.55092369" y="12.1517171" width="92.9044396" height="54.6827275"></rect>
                        <polygon id="Rectangle" fill="#E8E8F2" points="0 32.9832305 55.5690072 65.966461 0 98.9496915"></polygon>
                        <polygon id="Rectangle" fill="#E8E8F2" transform="translate(83.353511, 65.966461) scale(-1, 1) translate(-83.353511, -65.966461) " points="55.5690072 32.9832305 111.138014 65.966461 55.5690072 98.9496915"></polygon>
                    </g>
                    <ellipse id="Oval-3" fill="#E8E8F2" fill-rule="nonzero" cx="287.594722" cy="33.4590518" rx="33.4700762" ry="33.4590518"></ellipse>
                    <ellipse id="Oval-3" fill="#E8E8F2" fill-rule="nonzero" cx="287.594722" cy="541.540936" rx="33.4700762" ry="33.4590518"></ellipse>
                    <path d="M66.9401524,287.499994 C66.9401524,305.978918 51.9550889,320.959046 33.4700762,320.959046 C14.9850635,320.959046 0,305.978918 0,287.499994 C0,269.02107 14.9850635,254.040942 33.4700762,254.040942 C51.9550889,254.040942 66.9401524,269.02107 66.9401524,287.499994 Z" id="Oval-3" fill="#E8E8F2" fill-rule="nonzero"></path>
                    <path d="M575.189444,287.499994 C575.189444,305.978918 560.20438,320.959046 541.719368,320.959046 C523.234355,320.959046 508.249292,305.978918 508.249292,287.499994 C508.249292,269.02107 523.234355,254.040942 541.719368,254.040942 C560.20438,254.040942 575.189444,269.02107 575.189444,287.499994 Z" id="Oval-3" fill="#E8E8F2" fill-rule="nonzero"></path>
                    <path d="M131.514943,443.528388 C144.585821,456.59496 144.585821,477.78006 131.514943,490.846633 C118.444065,503.913205 97.2519851,503.913205 84.1811073,490.846633 C71.1102295,477.78006 71.1102295,456.59496 84.1811073,443.528388 C97.2519851,430.461815 118.444065,430.461815 131.514943,443.528388 Z" id="Oval-3" fill="#E8E8F2" fill-rule="nonzero"></path>
                    <path d="M491.008361,84.1533797 C504.079239,97.2199522 504.079239,118.405052 491.008361,131.471624 C477.937484,144.538197 456.745404,144.538197 443.674526,131.471624 C430.603648,118.405052 430.603648,97.2199522 443.674526,84.1533797 C456.745404,71.0868072 477.937484,71.0868072 491.008361,84.1533797 Z" id="Oval-3" fill="#E8E8F2" fill-rule="nonzero"></path>
                    <path d="M443.674526,443.528388 C456.745404,430.461815 477.937484,430.461815 491.008361,443.528388 C504.079239,456.59496 504.079239,477.78006 491.008361,490.846633 C477.937484,503.913205 456.745404,503.913205 443.674526,490.846633 C430.603648,477.78006 430.603648,456.59496 443.674526,443.528388 Z" id="Oval-3" fill="#E8E8F2" fill-rule="nonzero"></path>
                    <path d="M84.1811073,84.1533797 C97.2519851,71.0868072 118.444065,71.0868072 131.514943,84.1533797 C144.585821,97.2199522 144.585821,118.405052 131.514943,131.471624 C118.444065,144.538197 97.2519851,144.538197 84.1811073,131.471624 C71.1102295,118.405052 71.1102295,97.2199522 84.1811073,84.1533797 Z" id="Oval-3" fill="#E8E8F2" fill-rule="nonzero"></path>
                    <g id="Group-9" transform="translate(273.958764, 19.827586)" fill="#777FBE">
                        <polygon id="Combined-Shape" opacity="0.50999999" points="19.7931344 9.91379282 0 19.8275856 0 0"></polygon>
                        <polygon id="Triangle" points="9.91705931 19.8275856 29.7101937 9.91379282 29.7101937 29.7413785"></polygon>
                    </g>
                    <g id="Group-3" transform="translate(91.732801, 97.898707)" fill-rule="nonzero">
                        <ellipse id="Oval-4" fill="#CDCFE6" cx="8.67742689" cy="13.6314651" rx="8.67742689" ry="8.67456872"></ellipse>
                        <ellipse id="Oval-4" fill="#777FBE" cx="23.5530159" cy="11.1530169" rx="11.1566917" ry="11.1530169"></ellipse>
                    </g>
                    <g id="Group-8" transform="translate(92.972430, 456.034486)">
                        <polygon id="Triangle" fill="#777FBE" points="21.7282203 0 29.802516 16.1099133 13.6539247 16.1099133"></polygon>
                        <polygon id="Triangle" fill="#C0C3E0" points="12.4219926 0 24.8439853 24.784482 0 24.784482"></polygon>
                    </g>
                    <g id="Group-7" transform="translate(530.562702, 273.868528)" fill-rule="nonzero">
                        <rect id="Rectangle-6" fill="#777FBE" x="4.95852965" y="0" width="13.6359565" height="13.6314651"></rect>
                        <rect id="Rectangle-6" fill="#CDCFE6" x="0" y="6.19612051" width="23.5530169" height="23.545259"></rect>
                    </g>
                    <g id="Group-6" transform="translate(458.664020, 92.941807)">
                        <rect id="Rectangle-8" fill="#CDCFE6" fill-rule="nonzero" x="6.19816207" y="11.1530169" width="7.43779448" height="19.8275856"></rect>
                        <polygon id="Triangle" fill="#777FBE" transform="translate(9.917060, 9.893307) rotate(-270.000000) translate(-9.917060, -9.893307) " points="0.0204922952 9.89330727 19.8136267 -0.0204855455 19.8136267 19.8071001"></polygon>
                    </g>
                    <g id="Group-4" transform="translate(276.438040, 529.148699)" fill-rule="nonzero">
                        <ellipse id="Oval-5" fill="#CDCFE6" cx="8.26421609" cy="17.6961209" rx="8.26421609" ry="8.32758624"></ellipse>
                        <rect id="Rectangle-3" fill="#777FBE" x="18.5944872" y="0" width="6.19816207" height="26.0237072"></rect>
                    </g>
                    <rect id="Rectangle-9" fill="#777FBE" fill-rule="nonzero" x="19.8341186" y="275.107757" width="11.1566917" height="11.1530169"></rect>
                    <rect id="Rectangle-9" fill="#CDCFE6" fill-rule="nonzero" x="30.9908114" y="285.021541" width="16.1152214" height="16.1099133"></rect>
                    <g id="Group-5" transform="translate(453.705469, 453.556028)" fill-rule="nonzero">
                        <rect id="Rectangle-4" fill="#CDCFE6" x="4.95852965" y="0" width="23.5530169" height="23.545259"></rect>
                        <ellipse id="Oval-2" fill="#777FBE" cx="8.67742689" cy="19.8275856" rx="8.67742689" ry="8.67456872"></ellipse>
                    </g>
                </g>
            </g>
        </g>
    </g>
</svg>